<mxfile host="app.diagrams.net" modified="2020-07-10T10:33:40.387Z" agent="5.0 (Windows NT 10.0; Win64; x64) AppleWebKit/537.36 (KHTML, like Gecko) Chrome/83.0.4103.116 Safari/537.36" etag="ClSR4rNCII4x7iI4xT4K" version="13.4.1" type="github">
  <diagram id="qQgpVs0kOKDX7Zg4RqfS" name="Page-1">
    <mxGraphModel dx="1021" dy="459" grid="0" gridSize="10" guides="1" tooltips="1" connect="1" arrows="1" fold="1" page="1" pageScale="1" pageWidth="850" pageHeight="1100" math="0" shadow="0">
      <root>
        <mxCell id="0" />
        <mxCell id="1" parent="0" />
        <mxCell id="f6cK0JqAyUmQZV_hREii-1" value="Input Parser" style="rounded=0;whiteSpace=wrap;html=1;fillColor=none;strokeColor=#6c8ebf;" parent="1" vertex="1">
          <mxGeometry x="20" y="20" width="82" height="38" as="geometry" />
        </mxCell>
        <mxCell id="f6cK0JqAyUmQZV_hREii-3" value="PLC Adapter" style="rounded=0;whiteSpace=wrap;html=1;fillColor=none;strokeColor=#6c8ebf;" parent="1" vertex="1">
          <mxGeometry x="257" y="20" width="106" height="38" as="geometry" />
        </mxCell>
        <mxCell id="f6cK0JqAyUmQZV_hREii-4" value="UCP" style="rounded=0;whiteSpace=wrap;html=1;fillColor=none;strokeColor=#6c8ebf;" parent="1" vertex="1">
          <mxGeometry x="488" y="18" width="109" height="42" as="geometry" />
        </mxCell>
        <mxCell id="f6cK0JqAyUmQZV_hREii-5" value="" style="endArrow=none;html=1;strokeColor=#7EA6E0;" parent="1" edge="1">
          <mxGeometry width="50" height="50" relative="1" as="geometry">
            <mxPoint x="58" y="441" as="sourcePoint" />
            <mxPoint x="58" y="59" as="targetPoint" />
          </mxGeometry>
        </mxCell>
        <mxCell id="f6cK0JqAyUmQZV_hREii-16" value="" style="endArrow=none;html=1;fontStyle=1;strokeColor=#7EA6E0;" parent="1" edge="1">
          <mxGeometry width="50" height="50" relative="1" as="geometry">
            <mxPoint x="311" y="440" as="sourcePoint" />
            <mxPoint x="311" y="58" as="targetPoint" />
          </mxGeometry>
        </mxCell>
        <mxCell id="f6cK0JqAyUmQZV_hREii-18" value="" style="endArrow=classic;html=1;strokeColor=#7EA6E0;" parent="1" edge="1">
          <mxGeometry width="50" height="50" relative="1" as="geometry">
            <mxPoint x="536" y="198" as="sourcePoint" />
            <mxPoint x="312" y="198" as="targetPoint" />
          </mxGeometry>
        </mxCell>
        <mxCell id="f6cK0JqAyUmQZV_hREii-19" value="&lt;font&gt;&lt;font style=&quot;font-size: 10px&quot;&gt;Opens&amp;nbsp; TCP/IP Connection&amp;nbsp; for PLC Device&lt;/font&gt;&lt;br&gt;&lt;/font&gt;" style="text;html=1;align=center;verticalAlign=middle;resizable=0;points=[];autosize=1;" parent="1" vertex="1">
          <mxGeometry x="324" y="175" width="203" height="18" as="geometry" />
        </mxCell>
        <mxCell id="f6cK0JqAyUmQZV_hREii-20" value="" style="endArrow=none;html=1;fontStyle=1;strokeColor=#7EA6E0;" parent="1" edge="1">
          <mxGeometry width="50" height="50" relative="1" as="geometry">
            <mxPoint x="538" y="442" as="sourcePoint" />
            <mxPoint x="538" y="60" as="targetPoint" />
          </mxGeometry>
        </mxCell>
        <mxCell id="f6cK0JqAyUmQZV_hREii-23" value="" style="endArrow=classic;html=1;strokeColor=#7EA6E0;" parent="1" edge="1">
          <mxGeometry width="50" height="50" relative="1" as="geometry">
            <mxPoint x="539.5" y="306" as="sourcePoint" />
            <mxPoint x="311.5" y="306" as="targetPoint" />
          </mxGeometry>
        </mxCell>
        <mxCell id="f6cK0JqAyUmQZV_hREii-24" value="&lt;font style=&quot;font-size: 10px&quot;&gt;Request Tag Value&lt;/font&gt;" style="text;html=1;align=center;verticalAlign=middle;resizable=0;points=[];autosize=1;" parent="1" vertex="1">
          <mxGeometry x="377" y="286" width="93" height="18" as="geometry" />
        </mxCell>
        <mxCell id="f6cK0JqAyUmQZV_hREii-28" value="" style="endArrow=classic;html=1;strokeColor=#7EA6E0;" parent="1" edge="1">
          <mxGeometry width="50" height="50" relative="1" as="geometry">
            <mxPoint x="313" y="367" as="sourcePoint" />
            <mxPoint x="537" y="367" as="targetPoint" />
          </mxGeometry>
        </mxCell>
        <mxCell id="f6cK0JqAyUmQZV_hREii-29" value="&lt;font style=&quot;font-size: 10px&quot;&gt;Sends updated Tag Value as Response&amp;nbsp;&lt;/font&gt;" style="text;html=1;align=center;verticalAlign=middle;resizable=0;points=[];autosize=1;" parent="1" vertex="1">
          <mxGeometry x="326.5" y="347" width="187" height="18" as="geometry" />
        </mxCell>
        <mxCell id="iMpnR6omuqFQmsx1uf6G-1" value="MQTT Broker" style="rounded=0;whiteSpace=wrap;html=1;fillColor=none;strokeColor=#6c8ebf;" parent="1" vertex="1">
          <mxGeometry x="694" y="18" width="109" height="42" as="geometry" />
        </mxCell>
        <mxCell id="iMpnR6omuqFQmsx1uf6G-2" value="" style="endArrow=none;html=1;fontStyle=1;strokeColor=#7EA6E0;" parent="1" edge="1">
          <mxGeometry width="50" height="50" relative="1" as="geometry">
            <mxPoint x="753" y="442" as="sourcePoint" />
            <mxPoint x="753" y="60" as="targetPoint" />
          </mxGeometry>
        </mxCell>
        <mxCell id="ZiHUxecsQtzxcW_elMhK-1" value="" style="endArrow=classic;html=1;strokeColor=#7EA6E0;" edge="1" parent="1">
          <mxGeometry width="50" height="50" relative="1" as="geometry">
            <mxPoint x="311" y="420" as="sourcePoint" />
            <mxPoint x="754" y="420" as="targetPoint" />
          </mxGeometry>
        </mxCell>
        <mxCell id="ZiHUxecsQtzxcW_elMhK-2" value="" style="endArrow=classic;html=1;strokeColor=#7EA6E0;" edge="1" parent="1">
          <mxGeometry width="50" height="50" relative="1" as="geometry">
            <mxPoint x="58" y="148" as="sourcePoint" />
            <mxPoint x="311" y="149" as="targetPoint" />
          </mxGeometry>
        </mxCell>
        <mxCell id="ZiHUxecsQtzxcW_elMhK-3" value="&lt;font style=&quot;font-size: 10px&quot;&gt;1) Reads Input file for PLC&amp;nbsp; &amp;nbsp; &amp;nbsp; &amp;nbsp; &amp;nbsp; &amp;nbsp; &amp;nbsp; &amp;nbsp; &amp;nbsp; &amp;nbsp; &amp;nbsp; &amp;nbsp; &amp;nbsp; &amp;nbsp; &amp;nbsp; &amp;nbsp; &amp;nbsp;&lt;br&gt;2) Parses data into a Common Format&amp;nbsp;&lt;/font&gt;" style="text;html=1;align=left;verticalAlign=middle;resizable=0;points=[];autosize=1;" vertex="1" parent="1">
          <mxGeometry x="65" y="112" width="219" height="32" as="geometry" />
        </mxCell>
        <mxCell id="ZiHUxecsQtzxcW_elMhK-7" value="" style="endArrow=classic;html=1;strokeColor=#7EA6E0;" edge="1" parent="1">
          <mxGeometry width="50" height="50" relative="1" as="geometry">
            <mxPoint x="311.5" y="264" as="sourcePoint" />
            <mxPoint x="536" y="264" as="targetPoint" />
            <Array as="points">
              <mxPoint x="407.5" y="264" />
            </Array>
          </mxGeometry>
        </mxCell>
        <mxCell id="ZiHUxecsQtzxcW_elMhK-8" value="&lt;font style=&quot;font-size: 10px&quot;&gt;Maintains a &lt;font&gt;Dictionary&lt;/font&gt;&amp;lt;Tag,TagValue&amp;gt; &amp;amp; keeps &lt;br&gt;updating it with the data received from Input parser&lt;br&gt;based on time tick&lt;/font&gt;" style="text;html=1;align=left;verticalAlign=middle;resizable=0;points=[];autosize=1;" vertex="1" parent="1">
          <mxGeometry x="313" y="217" width="235" height="46" as="geometry" />
        </mxCell>
        <mxCell id="ZiHUxecsQtzxcW_elMhK-15" value="&lt;div style=&quot;text-align: justify&quot;&gt;&lt;span style=&quot;font-size: 10px&quot;&gt;&amp;nbsp;Publishes&amp;nbsp;&lt;/span&gt;&lt;span style=&quot;font-size: 10px&quot;&gt;meaningful data&amp;nbsp;&amp;nbsp;&lt;/span&gt;&lt;/div&gt;" style="text;html=1;align=left;verticalAlign=middle;resizable=0;points=[];autosize=1;" vertex="1" parent="1">
          <mxGeometry x="347" y="399" width="135" height="18" as="geometry" />
        </mxCell>
      </root>
    </mxGraphModel>
  </diagram>
</mxfile>
